<?xml version="1.0" standalone="no"?>
<!DOCTYPE svg PUBLIC "-//W3C//DTD SVG 20010904//EN"
 "http://www.w3.org/TR/2001/REC-SVG-20010904/DTD/svg10.dtd">
<svg version="1.0" xmlns="http://www.w3.org/2000/svg"
 width="223.000000pt" height="70.000000pt" viewBox="0 0 223.000000 70.000000"
 preserveAspectRatio="xMidYMid meet">
<metadata>
Created by potrace 1.16, written by Peter Selinger 2001-2019
</metadata>
<g transform="translate(0.000000,70.000000) scale(0.100000,-0.100000)"
fill="#000000" stroke="none">
<path d="M284 514 c1 -15 6 -19 19 -16 15 4 17 -5 17 -98 0 -93 -2 -102 -18
-98 -12 3 -18 -1 -18 -11 0 -13 12 -16 56 -16 44 0 56 3 56 16 0 10 -6 14 -18
11 -15 -4 -18 2 -18 42 0 49 9 57 31 29 13 -17 13 -17 -6 -3 -11 9 -5 -6 16
-35 24 -33 42 -49 53 -47 10 2 16 0 13 -5 -3 -4 12 -8 32 -8 27 0 37 4 37 16
0 10 -7 14 -16 12 -10 -3 -30 12 -52 39 l-35 43 26 20 c20 15 23 15 12 2 -9
-11 -10 -17 -2 -17 15 0 17 34 5 88 -3 17 -1 22 8 16 10 -5 10 -4 1 6 -14 15
-14 15 -124 27 -74 8 -77 8 -75 -13z"/>
<path d="M904 520 c0 -8 -6 -62 -13 -118 -12 -88 -16 -103 -30 -99 -10 2 -17
-2 -17 -12 0 -13 13 -16 62 -17 58 -1 63 0 67 22 2 13 -6 41 -19 65 -13 22
-24 46 -24 53 1 17 63 -106 65 -128 1 -12 10 -20 22 -21 13 -1 19 3 16 11 -2
6 12 43 32 80 20 38 33 60 30 49 -8 -24 -8 -25 -5 -50 2 -17 3 -16 9 5 7 22 8
19 12 -18 3 -27 1 -41 -6 -38 -6 2 -11 -4 -11 -13 0 -14 14 -16 101 -16 90 0
101 2 100 17 -1 10 -5 21 -10 25 -4 5 -5 2 -1 -4 4 -7 2 -13 -3 -13 -14 0 -14
3 -1 32 10 20 17 23 56 19 35 -2 44 -7 40 -18 -3 -8 -1 -11 4 -8 6 3 10 -1 10
-10 0 -9 -4 -14 -8 -11 -4 2 -8 -3 -9 -12 -1 -14 8 -17 51 -17 41 0 52 3 52
16 0 9 -6 15 -12 12 -15 -6 -37 33 -28 49 5 7 3 8 -6 3 -10 -6 -12 -4 -7 9 4
9 3 14 -2 11 -12 -7 -24 31 -15 46 5 8 3 9 -6 4 -10 -6 -12 -4 -7 9 5 11 3 15
-5 10 -8 -5 -9 -2 -5 10 4 9 3 15 -2 12 -11 -7 -35 49 -27 62 3 5 -5 10 -19
10 -14 -1 -22 -5 -19 -9 8 -14 -16 -80 -27 -74 -5 4 -6 -2 -2 -11 4 -12 3 -15
-5 -10 -8 5 -10 1 -5 -10 5 -13 3 -15 -7 -9 -8 5 -11 4 -7 -3 9 -14 -3 -43
-14 -36 -5 3 -6 -3 -2 -12 4 -11 2 -15 -4 -11 -5 4 -15 -6 -22 -21 -11 -25
-10 -26 4 -8 8 11 15 15 15 9 0 -17 -23 -31 -50 -29 -21 1 -26 8 -33 46 -4 25
-6 57 -4 72 2 15 0 25 -5 22 -7 -4 -12 33 -11 82 0 6 -9 10 -19 9 -20 -1 -38
-21 -37 -40 0 -5 6 1 14 15 32 55 11 0 -29 -80 l-43 -84 -17 32 c-9 18 -14 38
-10 44 4 6 3 8 -3 5 -6 -4 -15 5 -22 19 -7 17 -8 23 0 19 6 -4 2 10 -9 32 -20
39 -57 54 -58 23z"/>
<path d="M1795 499 c0 -31 3 -36 21 -35 15 1 20 6 16 20 -3 11 -1 17 5 13 5
-3 28 -7 50 -8 l41 -3 -62 -92 c-33 -51 -63 -91 -64 -89 -2 2 10 24 28 49 17
25 29 46 26 46 -12 0 -61 -84 -61 -104 -1 -20 4 -21 106 -21 88 0 105 2 101
14 -3 9 -1 12 6 7 8 -4 10 -2 6 8 -3 8 -1 23 5 34 8 16 7 18 -12 17 -14 -1
-22 -8 -22 -21 0 -16 -9 -19 -63 -22 l-63 -3 62 93 c61 91 100 142 65 83 -16
-26 -16 -28 -2 -14 10 9 19 27 20 40 3 24 3 24 -103 24 l-106 0 0 -36z"/>
<path d="M24 505 c-18 -18 -21 -33 -21 -105 0 -74 2 -86 23 -105 20 -19 36
-22 129 -23 l106 -1 -7 56 c-5 46 -4 55 8 51 8 -4 14 1 14 11 0 12 -10 16 -46
16 -36 0 -46 -4 -46 -16 0 -9 6 -15 13 -12 8 3 11 -4 9 -24 -3 -20 -8 -27 -21
-25 -9 2 -14 -1 -11 -7 3 -5 -7 -12 -24 -16 -38 -8 -86 14 -82 39 2 10 -1 15
-6 12 -14 -8 -23 36 -16 73 16 77 128 97 165 30 9 -17 8 -20 -2 -14 -7 5 -10
4 -6 -2 4 -6 16 -13 27 -16 18 -5 20 -2 13 16 -4 12 -7 34 -7 50 1 15 -2 28
-5 28 -3 1 -46 3 -96 4 -79 2 -91 -1 -111 -20z"/>
<path d="M581 505 c-23 -21 -26 -30 -27 -99 -2 -66 1 -78 22 -101 15 -16 29
-23 40 -18 10 4 15 2 11 -3 -3 -6 25 -10 68 -11 61 0 77 3 101 22 26 20 28 28
30 99 1 68 -1 81 -21 104 -21 25 -29 27 -110 28 -77 1 -90 -2 -114 -21z m162
-25 c18 -14 24 -27 20 -42 -4 -19 -3 -20 6 -8 8 12 11 6 11 -27 0 -60 -34 -98
-89 -98 -54 0 -82 28 -88 88 -5 41 -2 49 25 77 36 36 77 39 115 10z"/>
<path d="M1494 512 c0 -12 5 -18 13 -15 10 4 13 -18 13 -97 0 -80 -3 -101 -13
-97 -8 3 -14 -3 -14 -14 -1 -11 1 -17 6 -15 4 3 54 6 113 7 66 2 112 7 123 15
12 9 19 31 22 71 2 32 5 66 7 76 3 10 0 14 -7 10 -6 -4 -8 0 -4 10 8 21 -29
58 -51 50 -8 -4 -13 -2 -10 3 4 5 -37 10 -96 12 -96 3 -102 2 -102 -16z m201
-42 c26 -29 26 -114 1 -138 -11 -9 -15 -11 -11 -3 5 9 3 12 -6 9 -8 -3 -13
-11 -11 -17 1 -7 -16 -11 -48 -11 l-50 0 0 90 0 90 53 0 c42 0 58 -5 72 -20z"/>
<path d="M2038 419 c3 -91 1 -110 -10 -103 -11 7 -11 5 0 -9 8 -9 12 -20 9
-24 -3 -4 21 -8 53 -8 32 0 56 4 53 8 -3 4 1 16 8 25 11 14 11 15 -1 5 -27
-24 -40 -15 -40 28 l0 42 48 -49 c48 -50 59 -72 20 -38 l-23 18 21 -22 c13
-15 26 -20 37 -16 26 10 17 60 -16 97 l-29 32 27 -40 26 -40 -35 39 c-20 22
-36 42 -36 45 0 3 18 24 40 46 51 52 52 75 4 75 -19 0 -33 -4 -30 -8 3 -5 -6
-15 -19 -22 -14 -8 -25 -22 -25 -34 0 -18 3 -17 33 10 l32 29 -35 -40 c-19
-22 -36 -42 -37 -44 -2 -2 -3 14 -3 37 0 29 4 42 14 42 8 0 16 6 19 13 4 10
-9 14 -51 16 l-57 2 3 -112z"/>
<path d="M275 165 l0 -50 61 0 61 0 -3 50 c-2 28 -1 42 2 33 3 -10 12 -18 21
-18 12 0 14 -7 10 -33 -4 -27 -2 -33 13 -33 15 0 17 6 13 33 -4 26 -2 33 10
33 9 0 18 8 21 18 3 9 4 -5 2 -33 l-3 -50 143 0 c79 1 147 5 151 10 4 4 0 5
-9 2 -10 -4 -18 -2 -18 3 0 15 18 12 47 -7 26 -17 26 -17 15 4 -14 26 -6 53
15 53 12 0 14 -8 10 -33 -4 -27 -2 -33 13 -33 15 0 17 6 13 33 -4 26 -2 33 10
33 9 0 18 8 21 18 3 9 4 -6 2 -33 l-3 -50 84 1 c46 1 87 4 90 8 3 3 1 6 -5 6
-7 0 -12 7 -12 16 0 13 4 12 18 -6 20 -24 77 -36 68 -14 -6 17 15 19 31 3 6
-6 31 -12 56 -12 39 -2 45 1 45 19 0 17 -5 20 -26 16 -23 -4 -24 -2 -21 29 4
27 1 35 -12 35 -16 0 -17 -4 -20 -51 -2 -32 -5 -32 -18 5 -6 18 -6 28 -1 25 6
-3 7 1 4 9 -4 12 -11 13 -24 6 -9 -5 -20 -6 -24 -2 -4 3 -4 -2 0 -12 5 -13 4
-17 -4 -12 -8 4 -10 2 -6 -8 3 -8 1 -23 -6 -33 -9 -15 -10 -10 -8 27 3 43 2
45 -24 45 -16 0 -28 -3 -28 -7 0 -5 5 -8 10 -8 6 0 10 -5 10 -12 0 -6 -9 -3
-21 7 -17 16 -37 19 -134 20 -62 0 -111 -3 -108 -7 2 -5 0 -15 -5 -24 -8 -15
-10 -15 -16 1 -3 9 -4 20 -1 24 2 4 -6 7 -18 6 -14 -1 -21 -8 -19 -18 1 -9 -4
-29 -13 -44 l-16 -28 3 45 3 45 -52 0 c-28 0 -49 -3 -46 -8 2 -4 -6 -5 -19 -2
-13 3 -94 7 -179 8 l-154 2 0 -50z"/>
<path d="M1305 165 l0 -51 85 3 c47 2 89 8 94 13 13 13 36 13 36 0 0 -5 -7 -7
-15 -4 -8 4 -15 2 -15 -2 0 -5 30 -9 68 -9 61 0 67 2 68 21 1 17 -3 20 -22 16
-21 -4 -24 -1 -24 26 0 20 -6 31 -17 34 -16 4 -18 -2 -15 -41 2 -37 1 -43 -8
-28 -7 10 -9 25 -6 33 3 9 2 12 -5 9 -6 -4 -9 0 -7 10 4 22 -38 29 -46 8 -3
-8 -2 -11 4 -8 5 3 4 -9 -2 -27 -6 -18 -13 -27 -16 -20 -2 7 -8 10 -12 7 -5
-3 -3 9 4 27 l14 33 -49 0 c-27 0 -49 -3 -49 -7 0 -5 5 -8 10 -8 6 0 10 -17 9
-37 0 -29 -2 -33 -8 -18 -5 11 -6 25 -4 31 5 14 -16 30 -47 36 -24 4 -25 2
-25 -47z"/>
</g>
</svg>
